<svg xmlns="http://www.w3.org/2000/svg" viewBox="0 0 24 24" focusable="false"><path d="M11.993 0C5.369 0 0 5.37 0 11.993s5.37 11.992 11.993 11.992 11.992-5.37 11.992-11.992C23.978 5.373 18.613.007 11.993 0zm0 1.999a9.975 9.975 0 015.34 1.561l-.811.094.188 1.998-1.066-.469-.875.75.155 2.062 2.155-.688 2.686.875-.688 1.248-1.621-.998-1.75.25-1.717 1.281-.97 2.998 1.937 1.6s1.987-.344 2.092-.344c.324.582.606 1.187.844 1.81l-1.6 4.997a9.994 9.994 0 01-4.3.962c-.315 0-.628-.034-.932-.062l-1.093-1.906 1.066-3.997-4.037-3.03H3.279l-.968-1.967L4.997 8.9l3.997-1.905-.6-2.655 1.718-.374.812 1.125 2.998-.563-.533-2.31-2.217-.156c.274-.022.547-.064.82-.064zm-1.125.062l-1.562.656-.749-.125a9.86 9.86 0 012.31-.53zM2.06 12.773l.97 1.125v2.061l1.873 2.06h1.155L8.9 21.517a9.975 9.975 0 01-6.84-8.744z"/></svg>